# xmcd
# Copyright (C) 1995-1998 Ti Kan
#
# Track frame offsets:
#       150
#       17952
#       33565
#       54391
#       72317
#       75368
#       89052
#       107346
#       127424
#       145341
#       149820
#       169277
#       183887
#       200745
#       205236
#       228541
#       244744
#       256802
#       274532
#
# Disc length: 4440 seconds
#
# Revision: 2
# Processed by: cddbd v1.5.1PL0 Copyright (c) Steve Scherf et al.
# Submitted via: CD-Transfer v1.0
#
DISCID=21115613
DTITLE=Merlo - Ziitlos
DYEAR=2005
DGENRE=
TTITLE0=Intro Featuring Dj Maloni
TTITLE1=Ändlich
TTITLE2=Gueti Ziit Featuring Trickster and Dodo
TTITLE3=Glaube Featuring Alina Amuri
TTITLE4=Flinterlude I
TTITLE5=Nur Dasers Wüssed
TTITLE6=Keini Wie Du
TTITLE7=Wer Isch Es Featuring Trickster
TTITLE8=Zwiespalt Featuring Trickster and Alina Amuri
TTITLE9=Flinterlude Ii
TTITLE10=R'n'b
TTITLE11=Wiit Weg Featuring Alina Amuri
TTITLE12=Vo Züri Nach Philly Featuring Maylay Sparks, Trickster
TTITLE13=Flinterlude Iii
TTITLE14=Nur No Eimal
TTITLE15=Ohni Rap Featuring Trickster
TTITLE16=Ziitlos
TTITLE17=Wer Isch Es (Rmx)
TTITLE18=Vo Züri Nach Philly (Rmx)
EXTD=
EXTT0=
EXTT1=
EXTT2=
EXTT3=
EXTT4=
EXTT5=
EXTT6=
EXTT7=
EXTT8=
EXTT9=
EXTT10=
EXTT11=
EXTT12=
EXTT13=
EXTT14=
EXTT15=
EXTT16=
EXTT17=
EXTT18=
PLAYORDER=
